<svg xmlns="http://www.w3.org/2000/svg" width="24" height="24" viewBox="0 0 24 24" fill="none"><path d="M22.5676 10.7025C22.5188 10.6318 22.45 10.5772 22.37 10.5459C22.29 10.5145 22.2025 10.5078 22.1187 10.5265C22.0348 10.5452 21.9584 10.5885 21.8994 10.6509C21.8403 10.7132 21.8012 10.7918 21.787 10.8766C21.6369 11.864 21.2738 12.807 20.7228 13.6401C20.1719 14.4732 19.4464 15.1764 18.5965 15.7011C18.5187 15.7511 18.459 15.8248 18.4263 15.9113C18.3935 15.9977 18.3894 16.0924 18.4146 16.1814C18.4398 16.2704 18.4929 16.3489 18.5661 16.4054C18.6393 16.4619 18.7288 16.4933 18.8212 16.4951C20.583 15.6955 21.8644 13.8317 22.4136 12.0167L22.6601 12.3867C22.7242 12.4788 22.8218 12.5421 22.9321 12.5631C23.0423 12.584 23.1564 12.5609 23.2498 12.4986C23.3432 12.4364 23.4084 12.34 23.4315 12.2301C23.4546 12.1203 23.4337 12.0058 23.3733 11.9112L22.5676 10.7025Z" fill="#1B1B1B"></path><path d="M7.44146 9.01939C7.48966 9.09133 7.55852 9.14699 7.63898 9.17902C7.71944 9.21106 7.80771 9.21797 7.89217 9.19885C7.97664 9.17973 8.05333 9.13547 8.11214 9.0719C8.17096 9.00834 8.20913 8.92845 8.22165 8.84276C8.41427 7.56979 8.96063 6.37654 9.79845 5.39899C10.6363 4.42145 11.7319 3.69893 12.9604 3.31377C13.0667 3.27834 13.155 3.20265 13.2062 3.10293C13.2574 3.0032 13.2675 2.88738 13.2343 2.7803C13.2011 2.67321 13.1273 2.58339 13.0287 2.53008C12.9301 2.47677 12.8145 2.46422 12.7067 2.49512C11.4916 2.87599 10.3892 3.55066 9.49715 4.45938C8.60508 5.36809 7.95089 6.4828 7.59255 7.70474L7.34353 7.33352C7.27926 7.24142 7.18143 7.17821 7.07107 7.15747C6.9607 7.13674 6.8466 7.16013 6.75329 7.22262C6.65998 7.28511 6.59492 7.38171 6.57207 7.49167C6.54923 7.60162 6.57044 7.71614 6.63114 7.81063L7.44146 9.01939Z" fill="#1B1B1B"></path><path d="M18.8594 10.2891C19.8766 10.2891 20.871 9.98746 21.7167 9.42233C22.5625 8.8572 23.2217 8.05396 23.611 7.11418C24.0002 6.17441 24.1021 5.14031 23.9036 4.14265C23.7052 3.14499 23.2154 2.22858 22.4961 1.50931C21.7768 0.790033 20.8604 0.300202 19.8628 0.101755C18.8651 -0.096692 17.831 0.00515804 16.8912 0.394426C15.9514 0.783693 15.1482 1.44289 14.5831 2.28867C14.0179 3.13444 13.7163 4.12881 13.7163 5.14601C13.7174 6.50971 14.2596 7.81725 15.2239 8.78153C16.1882 9.74581 17.4957 10.288 18.8594 10.2891ZM21.5166 6.17462C21.5166 6.34415 21.4664 6.50988 21.3722 6.65084C21.278 6.7918 21.1441 6.90167 20.9875 6.96655C20.8309 7.03143 20.6585 7.0484 20.4922 7.01533C20.326 6.98225 20.1732 6.90062 20.0534 6.78074C19.9335 6.66086 19.8518 6.50812 19.8188 6.34185C19.7857 6.17557 19.8027 6.00322 19.8675 5.84659C19.9324 5.68996 20.0423 5.55609 20.1832 5.4619C20.3242 5.36771 20.4899 5.31744 20.6595 5.31744C20.8866 5.31811 21.1042 5.40863 21.2649 5.56924C21.4255 5.72985 21.516 5.94749 21.5166 6.17462ZM19.5494 2.81019C19.5747 2.7601 19.6097 2.71549 19.6523 2.6789C19.6948 2.64231 19.7442 2.61447 19.7975 2.59696C19.8509 2.57945 19.9071 2.57261 19.9631 2.57684C20.0191 2.58108 20.0736 2.59629 20.1237 2.62162C20.1738 2.64695 20.2184 2.6819 20.255 2.72447C20.2916 2.76704 20.3195 2.8164 20.337 2.86973C20.3545 2.92306 20.3613 2.97932 20.3571 3.03529C20.3529 3.09126 20.3376 3.14585 20.3123 3.19595L18.1694 7.48184C18.1345 7.55312 18.0802 7.61308 18.0127 7.6548C17.9452 7.69651 17.8672 7.71828 17.7879 7.71758C17.7207 7.7183 17.6543 7.70209 17.595 7.67043C17.5447 7.64531 17.4999 7.61047 17.4632 7.56793C17.4265 7.5254 17.3985 7.476 17.381 7.4226C17.3634 7.36919 17.3567 7.31284 17.361 7.25681C17.3654 7.20077 17.3808 7.14615 17.4064 7.09611L19.5494 2.81019ZM17.0593 3.26021C17.2288 3.26021 17.3946 3.31048 17.5355 3.40467C17.6765 3.49886 17.7864 3.63273 17.8512 3.78936C17.9161 3.94599 17.9331 4.11834 17.9 4.28462C17.8669 4.45089 17.7853 4.60363 17.6654 4.7235C17.5455 4.84338 17.3928 4.92502 17.2265 4.9581C17.0603 4.99117 16.8879 4.9742 16.7313 4.90932C16.5746 4.84444 16.4408 4.73457 16.3466 4.59361C16.2524 4.45265 16.2021 4.28692 16.2021 4.11739C16.2028 3.89025 16.2933 3.67261 16.4539 3.512C16.6145 3.3514 16.8322 3.26087 17.0593 3.26021Z" fill="#1B1B1B"></path><path d="M5.97573 21.2432L5.56897 22.1H12.4478L12.0706 21.2432H5.97573Z" fill="#1B1B1B"></path><path d="M15.9792 15.1438H16.7121C16.9682 15.1409 17.2129 15.0371 17.393 14.855C17.5731 14.6728 17.6741 14.427 17.6741 14.1709C17.6741 13.9147 17.5731 13.6689 17.393 13.4868C17.2129 13.3047 16.9682 13.2009 16.7121 13.198H15.6192C15.4063 13.1979 15.1964 13.2478 15.0063 13.3437C14.7277 12.6451 14.4063 11.8265 14.1663 11.2051C14.0384 10.8958 13.8213 10.6316 13.5427 10.4461C13.2641 10.2606 12.9366 10.1623 12.602 10.1636H5.40163C5.06482 10.1628 4.73547 10.2628 4.45594 10.4507C4.1764 10.6386 3.95946 10.9058 3.833 11.2179C3.59298 11.8308 3.27584 12.6494 2.99725 13.3437C2.80719 13.2478 2.59726 13.1979 2.38437 13.198H1.29147C1.03534 13.2009 0.790696 13.3047 0.610607 13.4868C0.430518 13.669 0.329517 13.9148 0.329521 14.1709C0.329524 14.4271 0.430531 14.6729 0.610625 14.855C0.790719 15.0371 1.03537 15.1409 1.29149 15.1438H2.02434C1.46203 15.8043 -0.0522153 16.5169 0.0013873 17.6424L0.00141306 20.3983C0.0027851 20.8484 0.181904 21.2798 0.499776 21.5984C0.817649 21.9171 1.24854 22.0973 1.69864 22.0998H4.61733L5.31593 20.6298C5.35081 20.5569 5.40548 20.4954 5.47369 20.4522C5.54191 20.409 5.6209 20.3859 5.70165 20.3855H12.3491C12.4315 20.3855 12.5122 20.4094 12.5814 20.4543C12.6506 20.4991 12.7054 20.5631 12.7391 20.6383L13.382 22.0998C13.7346 22.0716 16.5439 22.1757 16.8278 22.0184C17.1687 21.9056 17.4655 21.6884 17.6762 21.3977C17.887 21.107 18.001 20.7574 18.0022 20.3983V17.6425C18.0027 17.4149 17.9548 17.1899 17.8617 16.9822C17.7686 16.7746 17.6324 16.5891 17.4622 16.4382C16.9393 16.0053 16.3521 15.4952 15.9792 15.1438ZM2.7401 18.1354H1.51005C1.39771 18.1334 1.29065 18.0873 1.21192 18.0072C1.13318 17.927 1.08907 17.8191 1.08907 17.7068C1.08908 17.5944 1.1332 17.4865 1.21194 17.4064C1.29067 17.3262 1.39774 17.2802 1.51008 17.2782H2.7401C2.85267 17.2799 2.96006 17.3257 3.03908 17.4059C3.11809 17.4861 3.16238 17.5942 3.16238 17.7068C3.16238 17.8194 3.11809 17.9274 3.03908 18.0076C2.96006 18.0878 2.85267 18.1337 2.7401 18.1354ZM13.5534 18.1354H4.45446C4.34079 18.1354 4.23178 18.0902 4.1514 18.0098C4.07103 17.9295 4.02587 17.8204 4.02587 17.7068C4.02587 17.5931 4.07103 17.4841 4.1514 17.4037C4.23178 17.3233 4.34079 17.2782 4.45446 17.2782H13.5534C13.6659 17.2799 13.7733 17.3259 13.8522 17.406C13.9312 17.4862 13.9754 17.5942 13.9754 17.7068C13.9754 17.8193 13.9312 17.9273 13.8522 18.0075C13.7733 18.0877 13.6659 18.1336 13.5534 18.1354ZM3.27155 14.9252C3.27583 14.921 4.48446 11.8994 4.62588 11.5351C4.69024 11.3825 4.79818 11.2524 4.93617 11.1609C5.07415 11.0694 5.23607 11.0207 5.40163 11.0208H12.602C12.766 11.0202 12.9265 11.0678 13.0637 11.1577C13.2008 11.2476 13.3085 11.3759 13.3734 11.5265C13.5106 11.8822 14.7277 14.921 14.732 14.9252L3.27155 14.9252ZM16.4935 18.1354H15.2678C15.1554 18.1334 15.0484 18.0873 14.9696 18.0072C14.8909 17.927 14.8468 17.8191 14.8468 17.7068C14.8468 17.5944 14.8909 17.4865 14.9697 17.4064C15.0484 17.3262 15.1555 17.2802 15.2678 17.2782H16.4935C16.6061 17.2799 16.7135 17.3257 16.7925 17.4059C16.8715 17.4861 16.9158 17.5942 16.9158 17.7068C16.9158 17.8194 16.8715 17.9274 16.7925 18.0076C16.7135 18.0878 16.6061 18.1337 16.4935 18.1354Z" fill="#1B1B1B"></path><path d="M0.922829 22.837C0.710979 22.7649 0.508182 22.6685 0.318481 22.5498V22.9398C0.318454 23.0794 0.345929 23.2176 0.399334 23.3466C0.45274 23.4756 0.531031 23.5928 0.629735 23.6915C0.728439 23.7902 0.845623 23.8685 0.974592 23.9219C1.10356 23.9753 1.24179 24.0028 1.38138 24.0027H2.86002C3.13905 24.003 3.40698 23.8935 3.60588 23.6978C3.80478 23.5021 3.91868 23.236 3.92294 22.957C3.33276 22.9254 1.46419 23.0515 0.922829 22.837Z" fill="#1B1B1B"></path><path d="M14.0806 22.957C14.0848 23.236 14.1987 23.5021 14.3976 23.6978C14.5965 23.8935 14.8645 24.003 15.1435 24.0027H16.6221C16.7617 24.0028 16.8999 23.9753 17.0289 23.9219C17.1579 23.8685 17.275 23.7902 17.3738 23.6915C17.4725 23.5928 17.5507 23.4756 17.6042 23.3466C17.6576 23.2176 17.685 23.0794 17.685 22.9398V22.5498C17.2737 22.8155 16.7946 22.9569 16.3049 22.957L14.0806 22.957Z" fill="#1B1B1B"></path></svg>