<svg xmlns="http://www.w3.org/2000/svg" width="24" height="24" viewBox="0 0 24 24" fill="none"><path d="M4.55212 19.1308C4.55255 19.3524 4.64097 19.5648 4.79794 19.7212C4.95492 19.8776 5.1676 19.9653 5.38922 19.965H6.48918C6.7108 19.9653 6.92348 19.8777 7.08046 19.7212C7.23744 19.5648 7.32587 19.3524 7.32629 19.1308V18.6079H4.55212V19.1308Z" fill="#1B1B1B"></path><path d="M16.6744 19.1308C16.6749 19.3524 16.7633 19.5648 16.9203 19.7212C17.0772 19.8777 17.2899 19.9653 17.5116 19.965H18.6115C18.8331 19.9653 19.0458 19.8777 19.2028 19.7212C19.3598 19.5648 19.4482 19.3524 19.4486 19.1308V18.6079H16.6744V19.1308Z" fill="#1B1B1B"></path><path d="M17.3087 14.7941C17.7768 14.3623 18.3395 13.5551 19.0686 13.6085L20 13.6084C20.0008 13.3413 19.9372 13.0778 19.8146 12.8404C19.6919 12.6031 19.5139 12.3988 19.2955 12.2449C19.0771 12.091 18.8248 11.992 18.56 11.9563C18.2952 11.9206 18.0258 11.9493 17.7744 12.0399L17.243 12.2542C16.6244 12.4736 15.4343 13.1023 14.7717 13.057H9.22904C8.91298 13.0571 8.5998 12.997 8.30624 12.8799L6.75776 12.2542L6.22634 12.0399C5.97544 11.9512 5.70696 11.9237 5.44329 11.9598C5.17962 11.9959 4.92841 12.0946 4.71062 12.2475C4.49282 12.4005 4.31475 12.6033 4.19126 12.839C4.06777 13.0747 4.00245 13.3366 4.00074 13.6027C3.98806 13.6188 4.93301 13.6031 4.93211 13.6084C5.66431 13.5568 6.21861 14.3579 6.69204 14.7941C6.7314 14.8344 6.75805 14.8854 6.76869 14.9407C6.77933 14.9961 6.77348 15.0533 6.75187 15.1053C6.73026 15.1574 6.69385 15.2019 6.64715 15.2334C6.60045 15.2649 6.54552 15.282 6.48919 15.2826L4.00074 15.2826V17.4768C4.00098 17.6238 4.05888 17.7648 4.16199 17.8695C4.26511 17.9742 4.40519 18.0343 4.55213 18.0368H8.40911V17.3397C8.40902 17.2298 8.43061 17.1209 8.47265 17.0193C8.51469 16.9177 8.57634 16.8253 8.65409 16.7476C8.73184 16.6698 8.82415 16.6082 8.92575 16.5661C9.02735 16.5241 9.13624 16.5025 9.2462 16.5026H14.7545C14.8645 16.5025 14.9734 16.5241 15.075 16.5661C15.1766 16.6082 15.2689 16.6698 15.3466 16.7476C15.4244 16.8253 15.4861 16.9177 15.5281 17.0193C15.5701 17.1209 15.5917 17.2298 15.5916 17.3397V18.0368H19.4486C19.5955 18.0343 19.7356 17.9742 19.8387 17.8695C19.9419 17.7648 19.9998 17.6238 20 17.4768V15.2826H17.5115C17.4552 15.2821 17.4003 15.2649 17.3536 15.2334C17.3069 15.2019 17.2705 15.1573 17.2489 15.1053C17.2273 15.0533 17.2214 14.996 17.2321 14.9407C17.2427 14.8854 17.2693 14.8344 17.3087 14.7941ZM14.2031 15.2826H9.79761C9.72276 15.2812 9.65146 15.2505 9.59902 15.1971C9.54658 15.1437 9.51721 15.0718 9.51721 14.9969C9.51722 14.9221 9.5466 14.8502 9.59904 14.7968C9.65148 14.7433 9.72279 14.7126 9.79764 14.7112H14.2031C14.278 14.7126 14.3493 14.7434 14.4017 14.7968C14.4541 14.8502 14.4835 14.9221 14.4835 14.9969C14.4835 15.0718 14.4541 15.1437 14.4017 15.1971C14.3493 15.2505 14.278 15.2812 14.2031 15.2826Z" fill="#1B1B1B"></path><path d="M14.7545 17.0737H9.24617C9.17581 17.0741 9.10843 17.1022 9.05868 17.1519C9.00892 17.2017 8.98082 17.2691 8.98047 17.3394V18.0365H15.0202V17.3394C15.0199 17.2691 14.9918 17.2017 14.942 17.1519C14.8923 17.1022 14.8249 17.0741 14.7545 17.0737Z" fill="#1B1B1B"></path><path d="M5.50922 14.4197C5.35577 14.2671 5.14851 14.1809 4.9321 14.1797H4.00073V14.7111H5.80064L5.50922 14.4197Z" fill="#1B1B1B"></path><path d="M18.4915 14.4197L18.2001 14.7111H20V14.1797H19.0686C18.8522 14.1809 18.6449 14.2671 18.4915 14.4197Z" fill="#1B1B1B"></path><path d="M6.47485 11.523L8.52049 12.3515C8.74611 12.4404 8.98649 12.486 9.22901 12.4858C9.67481 12.4359 15.2441 12.6188 15.4887 12.3487L17.5258 11.523L16.6401 9.67734C16.467 9.35624 16.2075 9.08999 15.8909 8.90873C15.5743 8.72747 15.2133 8.63843 14.8488 8.65168H9.15188C8.78732 8.63843 8.42633 8.72747 8.10975 8.90873C7.79317 9.08999 7.53364 9.35624 7.36053 9.67734L6.47485 11.523Z" fill="#1B1B1B"></path><path d="M5.02923 9.16591H6.65203C6.87914 9.16524 7.09676 9.07472 7.25735 8.91413C7.41794 8.75353 7.50846 8.53592 7.50913 8.3088V6.68886C7.50923 6.55407 7.47744 6.42117 7.41636 6.30101C7.35528 6.18085 7.26664 6.07684 7.15769 5.99748V5.34035C7.15454 4.9931 7.01439 4.66115 6.76773 4.41672C6.52107 4.17229 6.18786 4.03515 5.8406 4.03516C5.49334 4.03516 5.16013 4.1723 4.91348 4.41674C4.66682 4.66117 4.52668 4.99313 4.52354 5.34037V5.99748C4.41459 6.07684 4.32596 6.18085 4.26489 6.30101C4.20381 6.42117 4.17202 6.55407 4.17212 6.68886V8.3088C4.17279 8.53592 4.2633 8.75354 4.4239 8.91413C4.58449 9.07473 4.80211 9.16524 5.02923 9.16591ZM6.12632 7.71169C6.12516 7.7867 6.09455 7.85824 6.04109 7.91088C5.98763 7.96351 5.91562 7.99301 5.8406 7.99301C5.76558 7.993 5.69357 7.9635 5.64012 7.91086C5.58667 7.85822 5.55606 7.78667 5.55491 7.71166V7.28598C5.55607 7.21097 5.58668 7.13942 5.64013 7.08679C5.69359 7.03415 5.7656 7.00465 5.84062 7.00465C5.91564 7.00465 5.98765 7.03415 6.0411 7.08679C6.09456 7.13942 6.12517 7.21097 6.12632 7.28598V7.71169ZM5.09495 5.34035C5.09704 5.14395 5.17652 4.95631 5.31614 4.81817C5.45576 4.68003 5.64423 4.60255 5.84064 4.60256C6.03705 4.60256 6.22552 4.68005 6.36514 4.81819C6.50475 4.95633 6.58423 5.14398 6.58631 5.34037V5.83176H5.09495V5.34035Z" fill="#1B1B1B"></path><path d="M16.987 8.1138C16.912 8.11493 16.8404 8.14553 16.7877 8.19899C16.7351 8.25245 16.7056 8.32448 16.7056 8.39952C16.7056 8.47456 16.7351 8.54659 16.7878 8.60004C16.8404 8.6535 16.912 8.68409 16.987 8.68521H17.9482V9.02281C17.9495 9.09772 17.9802 9.16911 18.0336 9.22161C18.0871 9.27412 18.159 9.30353 18.2339 9.30353C18.3088 9.30353 18.3807 9.2741 18.4342 9.22159C18.4876 9.16908 18.5183 9.09769 18.5196 9.02278V8.68521H18.6493C18.8007 8.68338 18.9502 8.65088 19.0887 8.58967C19.2271 8.52845 19.3518 8.4398 19.455 8.32905C19.5583 8.21831 19.638 8.08778 19.6893 7.94536C19.7407 7.80294 19.7627 7.65158 19.7539 7.50043C19.7451 7.34928 19.7058 7.20148 19.6383 7.06596C19.5708 6.93044 19.4765 6.81002 19.3611 6.71197C19.2457 6.61393 19.1117 6.5403 18.967 6.49553C18.8224 6.45075 18.6702 6.43577 18.5196 6.45149V5.36058H19.4805C19.5556 5.35949 19.6272 5.32891 19.6799 5.27544C19.7326 5.22198 19.7621 5.14993 19.7621 5.07486C19.7621 4.9998 19.7326 4.92775 19.6799 4.87429C19.6272 4.82083 19.5555 4.79025 19.4805 4.78917H18.5196V4.45157C18.5181 4.37676 18.4874 4.30551 18.434 4.25312C18.3806 4.20073 18.3087 4.17138 18.2339 4.17139C18.1591 4.17139 18.0872 4.20074 18.0338 4.25313C17.9804 4.30553 17.9497 4.37678 17.9482 4.45159V4.78918H17.8182C17.5237 4.79186 17.2422 4.91071 17.035 5.11987C16.8277 5.32903 16.7114 5.61159 16.7114 5.90605C16.7114 6.20052 16.8277 6.48307 17.035 6.69223C17.2423 6.90139 17.5238 7.02023 17.8182 7.0229H17.9482V8.11382L16.987 8.1138ZM18.5196 7.02288C18.6007 7.00595 18.6845 7.00731 18.765 7.02686C18.8455 7.04641 18.9207 7.08367 18.9849 7.13592C19.0492 7.18817 19.1011 7.25409 19.1367 7.3289C19.1723 7.4037 19.1907 7.4855 19.1907 7.56834C19.1907 7.65119 19.1723 7.73298 19.1367 7.80779C19.1011 7.88259 19.0492 7.94852 18.9849 8.00077C18.9207 8.05301 18.8455 8.09027 18.765 8.10983C18.6845 8.12938 18.6007 8.13074 18.5196 8.1138V7.02288ZM17.8182 6.4515C17.7412 6.44987 17.6654 6.43215 17.5956 6.39948C17.5259 6.3668 17.4638 6.3199 17.4132 6.26177C17.3627 6.20364 17.3249 6.13559 17.3023 6.06198C17.2796 5.98837 17.2726 5.91083 17.2817 5.83436C17.2909 5.75789 17.3159 5.68417 17.3552 5.61794C17.3945 5.55172 17.4472 5.49445 17.51 5.44983C17.5728 5.40521 17.6442 5.37422 17.7197 5.35885C17.7951 5.34349 17.873 5.34408 17.9482 5.3606V6.4515H17.8182Z" fill="#1B1B1B"></path><path d="M12 0C9.62663 0 7.30655 0.703788 5.33316 2.02236C3.35977 3.34094 1.8217 5.21508 0.913451 7.4078C0.00519953 9.60051 -0.232441 12.0133 0.230582 14.3411C0.693605 16.6689 1.83649 18.807 3.51472 20.4853C5.19295 22.1635 7.33115 23.3064 9.65892 23.7694C11.9867 24.2324 14.3995 23.9948 16.5922 23.0865C18.7849 22.1783 20.6591 20.6402 21.9776 18.6668C23.2962 16.6934 24 14.3734 24 12C23.9964 8.8185 22.731 5.76834 20.4813 3.51868C18.2317 1.26902 15.1815 0.00359007 12 0ZM12 23.3165C9.76181 23.3165 7.57388 22.6528 5.71289 21.4093C3.8519 20.1659 2.40144 18.3985 1.54492 16.3306C0.688399 14.2628 0.464295 11.9874 0.900945 9.79226C1.33759 7.59707 2.41539 5.58066 3.99803 3.99802C5.58067 2.41538 7.59708 1.33759 9.79226 0.900939C11.9874 0.464289 14.2628 0.688394 16.3306 1.54491C18.3985 2.40143 20.1659 3.8519 21.4093 5.71289C22.6528 7.57388 23.3165 9.7618 23.3165 12C23.3131 15.0003 22.1198 17.8767 19.9982 19.9982C17.8767 22.1198 15.0003 23.3131 12 23.3165Z" fill="#1B1B1B"></path></svg>