<svg xmlns="http://www.w3.org/2000/svg" width="34" height="24" viewBox="0 0 34 24" fill="none"><path d="M15.4562 14.1739C15.517 14.137 15.5795 14.1014 15.6444 14.0698V10.7754C15.6444 9.30619 16.8384 8.11279 18.3065 8.11279H27.1816C28.6514 8.11279 29.8454 9.30619 29.8454 10.7754V14.0698C29.9096 14.102 29.9734 14.137 30.0335 14.1739L30.2001 12.5953H33.1287V14.1037L30.1843 14.272C30.7343 14.6624 31.0878 15.2568 31.0878 15.9236V18.941C31.0878 19.6914 30.6419 20.3507 29.9693 20.7299V22.7579C29.9693 23.444 29.1715 23.9998 28.1879 23.9998C27.2043 23.9998 26.4078 23.4434 26.4078 22.7573V21.0707H19.3865V22.7573C19.3865 23.4434 18.5905 23.9992 17.6063 23.9992C16.6227 23.9992 15.825 23.4434 15.825 22.7573V20.8755C14.9864 20.5383 14.4008 19.8001 14.4008 18.941V15.9236C14.4008 15.2562 14.7538 14.6624 15.3043 14.272L12.3594 14.1037V12.5953H15.2891L15.4562 14.1739ZM28.78 10.7754C28.78 9.89412 28.0634 9.1782 27.1821 9.1782H18.3065C17.4257 9.1782 16.7098 9.89529 16.7098 10.7754V13.7993C16.7548 13.7969 16.7992 13.7928 16.8437 13.7928H28.6461C28.6905 13.7928 28.735 13.7969 28.78 13.7993V10.7754ZM19.816 17.6985V18.408H25.3184V17.6985H19.816ZM29.3124 18.7096V16.376H26.0986V18.7096H29.3124ZM25.6732 20.4494C25.9192 20.4494 26.1173 20.2501 26.1173 20.0053C26.1173 19.7604 25.9192 19.5617 25.6732 19.5617C25.4277 19.5617 25.2296 19.7604 25.2296 20.0053C25.2296 20.2501 25.4277 20.4494 25.6732 20.4494ZM19.3725 20.4494C19.6173 20.4494 19.816 20.2501 19.816 20.0053C19.816 19.7604 19.6173 19.5617 19.3725 19.5617C19.1264 19.5617 18.9265 19.7604 18.9265 20.0053C18.9265 20.2501 19.1264 20.4494 19.3725 20.4494ZM15.7332 18.7096H18.9464V16.376H15.7332V18.7096Z" fill="#1B1B1B"></path><path d="M6.97447 6.64945C5.97776 6.64945 5.16977 5.84146 5.16977 4.84474C5.16977 3.84803 5.97776 3.04004 6.97447 3.04004C7.97118 3.04004 8.77917 3.84803 8.77917 4.84474C8.77917 5.84146 7.97118 6.64945 6.97447 6.64945Z" fill="#1B1B1B"></path><path d="M5.25809 17.594C5.02841 17.5385 4.86594 17.4719 4.7771 17.3953C4.68652 17.3176 4.64327 17.22 4.64327 17.0908C4.64327 16.9441 4.69002 16.8331 4.78762 16.7519C4.88756 16.6706 5.02899 16.6285 5.20782 16.6285C5.37906 16.6285 5.51231 16.6689 5.60231 16.7489C5.69114 16.829 5.74783 16.9552 5.77004 17.1235L5.77472 17.1633H6.237L6.23524 17.1159C6.22297 16.8459 6.1207 16.6297 5.93543 16.4737C5.79751 16.3568 5.62101 16.2826 5.41062 16.2539V15.8828H4.93607V16.2656C4.76015 16.2983 4.60295 16.3691 4.47087 16.4778C4.27859 16.6361 4.17982 16.8454 4.17982 17.0961C4.17982 17.3158 4.25638 17.5005 4.40891 17.6443C4.5597 17.7869 4.78646 17.8932 5.08393 17.9651C5.34984 18.0277 5.54212 18.1054 5.65257 18.1942C5.75835 18.2795 5.8092 18.3918 5.8092 18.5349C5.8092 18.7108 5.75426 18.8453 5.64322 18.9434C5.5316 19.0399 5.37263 19.0896 5.16925 19.0896C4.9647 19.0896 4.80808 19.0399 4.69879 18.9434C4.58892 18.8458 4.53398 18.7079 4.53106 18.5256L4.53048 18.4812H4.0717L4.06177 18.6016C4.06469 18.8225 4.16755 19.0212 4.36625 19.1918C4.53165 19.3315 4.72217 19.4227 4.93665 19.4595V19.899H5.4112V19.4589C5.62569 19.4238 5.81037 19.3426 5.95823 19.214C6.16687 19.0375 6.2744 18.8055 6.2744 18.5273C6.2744 18.2947 6.18791 18.1001 6.01784 17.9452C5.84836 17.791 5.59355 17.6735 5.25809 17.594Z" fill="#1B1B1B"></path><path d="M10.4437 0V4.62806H9.73074V0.71183H0.711894V12.1934H4.6854V9.24619C4.6854 8.34676 5.41359 7.61681 6.31302 7.61681C6.33757 7.61681 6.35978 7.62032 6.38432 7.6209C6.51757 7.62149 6.65258 7.64545 6.78875 7.6887C6.79459 7.69045 6.80043 7.6922 6.80453 7.69337C6.83141 7.70272 6.85829 7.70681 6.88518 7.7185L12.8247 10.1158C13.4173 10.3554 13.7381 10.9428 13.5429 11.4278C13.3477 11.9135 12.7084 12.1128 12.1164 11.8732L7.94065 10.1889V12.194H9.73016V11.7481H10.4432V23.4688H6.29425e-05V0.000584383L10.4437 0ZM5.16989 21.5922C7.21012 21.5922 8.87047 19.9312 8.87047 17.891C8.87047 15.8496 7.21012 14.1898 5.16989 14.1898C3.12732 14.1898 1.46697 15.8496 1.46697 17.891C1.46697 19.9312 3.12674 21.5922 5.16989 21.5922Z" fill="#1B1B1B"></path><path d="M5.16979 14.4849C7.04755 14.4849 8.57349 16.0126 8.57349 17.8903C8.57349 19.7687 7.04755 21.2952 5.16979 21.2952C3.29145 21.2952 1.76435 19.7687 1.76435 17.8903C1.76376 16.0126 3.29145 14.4849 5.16979 14.4849ZM5.16979 20.8691C6.81378 20.8691 8.14744 19.5349 8.14744 17.8903C8.14744 16.2452 6.81495 14.9115 5.16979 14.9115C3.52464 14.9115 2.19039 16.2446 2.19039 17.8903C2.19039 19.5349 3.52405 20.8691 5.16979 20.8691Z" fill="#1B1B1B"></path></svg>