<svg height="512" viewBox="0 0 64 64" width="512" xmlns="http://www.w3.org/2000/svg"><g id="Taxi_Driver-Customer-Driver-Taxi-Transport" data-name="Taxi Driver-Customer-Driver-Taxi-Transport"><circle cx="58" cy="43" fill="#febb5c" r="2"/><circle cx="24" cy="43" fill="#febb5c" r="2"/><path d="m59 47v8a2.006 2.006 0 0 1 -2 2h-32a1.976 1.976 0 0 1 -1.5-.69 1.925 1.925 0 0 1 -.5-1.31v-8a2.006 2.006 0 0 1 2-2h32a2.006 2.006 0 0 1 2 2z" fill="#ffd422"/><path d="m29 57v3a1 1 0 0 1 -1 1h-4a1 1 0 0 1 -1-1v-5a1.925 1.925 0 0 0 .5 1.31 1.976 1.976 0 0 0 1.5.69z" fill="#57565c"/><path d="m59 55v5a1 1 0 0 1 -1 1h-4a1 1 0 0 1 -1-1v-3h4a2.006 2.006 0 0 0 2-2z" fill="#57565c"/><circle cx="53" cy="51" fill="#ff9811" r="2"/><path d="m54 37h-26l.81-3.24a1 1 0 0 1 .97-.76h22.44a1 1 0 0 1 .97.76z" fill="#ffd422"/><path d="m36 29h10v4h-10z" fill="#febb5c"/><path d="m57 45h-32l3-8h26z" fill="#e6e7e8"/><circle cx="29" cy="51" fill="#ff9811" r="2"/><path d="m25 57h4v2h-4a1.976 1.976 0 0 1 -1.5-.69 1.925 1.925 0 0 1 -.5-1.31v-2a1.925 1.925 0 0 0 .5 1.31 1.976 1.976 0 0 0 1.5.69z" fill="#3e3d42"/><path d="m59 55v2a2.006 2.006 0 0 1 -2 2h-4v-2h4a2.006 2.006 0 0 0 2-2z" fill="#3e3d42"/><path d="m57 45h-14l8-8h3z" fill="#e0e0e2"/><path d="m15 61h-8v-13h16v7 5 1z" fill="#6c6b74"/><path d="m23.44 27.42-2.74-1.22-2.7 2.8-3-3-3 3-2.7-2.8-2.74 1.22a6 6 0 0 0 -3.56 5.48v14.1h4v1h16v-1h4v-14.1a6 6 0 0 0 -3.56-5.48z" fill="#787680"/><path d="m20.7 26.2-2.7 2.8-3-3 3-1z" fill="#57565c"/><path d="m15 26-3 3-2.7-2.8 2.7-1.2z" fill="#57565c"/><g fill="#ffc477"><path d="m27 47v1a3 3 0 0 1 -3 3h-1v-4z"/><path d="m7 48v3h-1a3 3 0 0 1 -3-3v-1h4z"/><path d="m12 22v.32.68 2l3 1 3-1v-2-.68-.32z"/></g><path d="m25 15a2.006 2.006 0 0 1 -2 2h-2v-4h2a2.006 2.006 0 0 1 2 2z" fill="#ffb655"/><path d="m9 13v4h-2a2 2 0 0 1 0-4z" fill="#ffb655"/><path d="m22 11v5a5.474 5.474 0 0 1 -.08 1 6.952 6.952 0 0 1 -3.92 5.32 6.982 6.982 0 0 1 -9.92-5.32 5.474 5.474 0 0 1 -.08-1v-5z" fill="#ffc477"/><path d="m24 5-.67 2h-16.66l-.67-2 2-2h14z" fill="#787680"/><path d="m23.33 7-1.33 4h-14l-1.33-4z" fill="#ffd422"/><path d="m18 22.32v2a6.958 6.958 0 0 1 -6 0v-2a6.958 6.958 0 0 0 6 0z" fill="#ffb655"/><path d="m22 11a3.989 3.989 0 0 1 -.54 2 3.574 3.574 0 0 1 -.46.64 3.984 3.984 0 0 1 -3 1.36h-6a3.984 3.984 0 0 1 -3-1.36 3.574 3.574 0 0 1 -.46-.64 3.989 3.989 0 0 1 -.54-2z" fill="#787680"/><path d="m14 52h2v9h-2z" fill="#3e3d42"/><path d="m36 52h10v2h-10z" fill="#febb5c"/><path d="m36 48h10v2h-10z" fill="#febb5c"/><path d="m38 45h-2a2 2 0 0 0 -4 0h-2a4 4 0 0 1 8 0z" fill="#c6c5ca"/><path d="m7 33h2v15h-2z" fill="#57565c"/><path d="m21 33h2v15h-2z" fill="#57565c"/></g></svg>